# xmcd CD database file
# Copyright (C) 1993-1998 Ti Kan
#
# Track frame offsets:
#  150
#  8726
#  15641
#  26481
#  41548
#  53422
#  68338
#  79782
#  93535
#  107623
#  129506
#  137810
#  148325
#  159467
#  171681
#  181763
#  194461
#  207158
#  219002
#  232681
#  246873
#  259525
#  273659
#  285345
#
# Disc length: 3993 seconds
#
# Revision: 1
# Processed by: cddbd v1.4b41PL1 Copyright (c) Steve Scherf et al.
# Submitted via: CDWizzard Release:4.35
#
DISCID=420f9718
DTITLE=Jane Froman - Jane Froman "More of the Star Thru Three Decades"
DYEAR=1900
DGENRE=
TTITLE0=With A Song In My Heart
TTITLE1=It's A Good Day
TTITLE2=Tea For Two
TTITLE3=Blue Moon
TTITLE4=That Old Feeling
TTITLE5=Embraceable You
TTITLE6=Get Happy
TTITLE7=I'll Walk Alone/They're Either Too Young Or Too Old
TTITLE8=I'm Thru With Love
TTITLE9=An American Medley
TTITLE10=With A song In My Heart
TTITLE11=Hands Across The Table
TTITLE12=How About You
TTITLE13=What Is There To Say
TTITLE14=Soon
TTITLE15=Be Still My Heart
TTITLE16=More Than You Know
TTITLE17=There's A Lull In My Life
TTITLE18=A Little Kiss Each Morning
TTITLE19=You, So It's You
TTITLE20=Linger In My Arms A Little Longer, Baby
TTITLE21=I Got Lost In His Arms
TTITLE22=Millionaires Don't Whistle
TTITLE23=June Kisses
EXTD=Studio recordings and movie sound track cuts
EXTT0=
EXTT1=
EXTT2=
EXTT3=
EXTT4=
EXTT5=
EXTT6=
EXTT7=
EXTT8=
EXTT9=
EXTT10=
EXTT11=
EXTT12=
EXTT13=
EXTT14=
EXTT15=
EXTT16=
EXTT17=
EXTT18=
EXTT19=
EXTT20=
EXTT21=
EXTT22=
EXTT23=
PLAYORDER=
